<?xml version="1.0" encoding="UTF-8"?>
<svg width="16px" height="16px" viewBox="0 0 16 16" version="1.1" xmlns="http://www.w3.org/2000/svg" xmlns:xlink="http://www.w3.org/1999/xlink">
    <title>Artboard</title>
    <g id="Artboard" stroke="none" stroke-width="1" fill="none" fill-rule="evenodd">
        <g id="Terminal" transform="translate(0.000000, 1.000000)" fill="#FFFFFF" fill-rule="nonzero">
            <path d="M14,0 C14.5304,0 15.0391,0.210714 15.4142,0.585786 C15.7893,0.960859 16,1.46957 16,2 L16,12 C16,12.5304 15.7893,13.0391 15.4142,13.4142 C15.0391,13.7893 14.5304,14 14,14 L2,14 C1.46957,14 0.960859,13.7893 0.585786,13.4142 C0.210714,13.0391 0,12.5304 0,12 L0,2 C0,1.46957 0.210714,0.960859 0.585786,0.585786 C0.960859,0.210714 1.46957,0 2,0 L14,0 Z M12,9 L9,9 C8.73478,9 8.48043,9.10536 8.29289,9.29289 C8.10536,9.48043 8,9.73478 8,10 C8,10.2652 8.10536,10.5196 8.29289,10.7071 C8.48043,10.8946 8.73478,11 9,11 L12,11 C12.2652,11 12.5196,10.8946 12.7071,10.7071 C12.8946,10.5196 13,10.2652 13,10 C13,9.73478 12.8946,9.48043 12.7071,9.29289 C12.5196,9.10536 12.2652,9 12,9 Z M4,3.00021 C3.73484,3.00021 3.48053,3.10553 3.293,3.293 C3.10553,3.48053 3.00021,3.73484 3.00021,4 C3.00021,4.26516 3.10553,4.51947 3.293,4.707 L3.293,4.707 L5.586,7 L3.293,9.293 C3.11084,9.4816 3.01005,9.7342 3.01233,9.9964 C3.0146,10.2586 3.11977,10.5094 3.30518,10.6948 C3.49059,10.8802 3.7414,10.9854 4.0036,10.9877385 C4.2658,10.99 4.5184,10.8892 4.707,10.707 L4.707,10.707 L7.707,7.707 C7.89447,7.51947 7.99979,7.26516 7.99979,7 C7.99979,6.73484 7.89447,6.48053 7.707,6.293 L7.707,6.293 L4.707,3.293 C4.51947,3.10553 4.26516,3.00021 4,3.00021 Z" id="Shape"></path>
        </g>
    </g>
</svg>